<svg xmlns="http://www.w3.org/2000/svg" viewBox="0 0 181.5 181.5"><defs><style>.cls-1{font-size:21px;fill:#951b81;font-family:ShowcardGothic-Reg, Showcard Gothic;}</style></defs><g id="Camada_2" data-name="Camada 2"><g id="Camada_1-2" data-name="Camada 1"><text class="cls-1" transform="matrix(-0.57, 0.82, -0.82, -0.57, 151.3, 130.47)"> </text><text class="cls-1" transform="translate(149.5 133.51) rotate(131.18)">A</text><text class="cls-1" transform="matrix(-0.74, 0.68, -0.68, -0.74, 141.32, 142.57)"> </text><text class="cls-1" transform="matrix(-0.81, 0.59, -0.59, -0.81, 139.02, 145.17)">Ú</text><text class="cls-1" transform="translate(127.92 153.12) rotate(153.54)">l</text><text class="cls-1" transform="translate(118.92 157.77) rotate(162.4)">t</text><text class="cls-1" transform="matrix(-0.99, 0.17, -0.17, -0.99, 107.22, 161.36)">i</text><text class="cls-1" transform="translate(100.33 162.98) rotate(179.07)">m</text><text class="cls-1" transform="translate(84.25 163.13) rotate(-169.85)">a</text><text class="cls-1" transform="matrix(-0.96, -0.28, 0.28, -0.96, 72.27, 160.78)"> </text><text class="cls-1" transform="translate(68.83 160.04) rotate(-157.49)">C</text><text class="cls-1" transform="matrix(-0.84, -0.54, 0.54, -0.84, 58.26, 155.96)">h</text><text class="cls-1" transform="matrix(-0.72, -0.69, 0.69, -0.72, 45.58, 147.67)">a</text><text class="cls-1" transform="matrix(-0.6, -0.8, 0.8, -0.6, 36.9, 139.57)">n</text><text class="cls-1" transform="matrix(-0.46, -0.89, 0.89, -0.46, 29.42, 129.71)">c</text><text class="cls-1" transform="translate(24.06 119.54) rotate(-108.74)">e</text><text class="cls-1" transform="translate(20.68 109.08) rotate(-102.93)"> </text><text class="cls-1" transform="matrix(-0.17, -0.99, 0.99, -0.17, 19.81, 105.33)"> </text><text class="cls-1" transform="translate(19.14 101.54) rotate(-96.82)"> </text><text class="cls-1" transform="translate(18.67 97.72) rotate(-93.79)"> </text><text class="cls-1" transform="translate(18.42 93.87) rotate(-90.93)"> </text><text class="cls-1" transform="translate(18.35 90.01) rotate(-87.8)"> </text><text class="cls-1" transform="matrix(0.09, -1, 1, 0.09, 18.49, 86.14)"> </text><text class="cls-1" transform="translate(18.83 82.32) rotate(-81.74)"> </text><text class="cls-1" transform="translate(19.37 78.5) rotate(-78.67)"> </text><text class="cls-1" transform="matrix(0.25, -0.97, 0.97, 0.25, 20.12, 74.71)"> </text><text class="cls-1" transform="translate(21.07 70.99) rotate(-72.52)"> </text><text class="cls-1" transform="translate(21.88 67.54) rotate(-66.42)">c</text><text class="cls-1" transform="matrix(0.55, -0.83, 0.83, 0.55, 26.27, 57.04)">o</text><text class="cls-1" transform="translate(33.35 45.81) rotate(-45.09)">m</text><text class="cls-1" transform="translate(45.29 34.39) rotate(-37.28)"> </text><text class="cls-1" transform="matrix(0.85, -0.52, 0.52, 0.85, 47.99, 32.06)">E</text><text class="cls-1" transform="translate(56.95 26.38) rotate(-22.42)">n</text><text class="cls-1" transform="matrix(0.98, -0.22, 0.22, 0.98, 68.35, 21.58)">z</text><text class="cls-1" transform="translate(80.13 18.78) rotate(-2.61)">o</text><text class="cls-1" transform="translate(93.9 18.41) rotate(4.08)"> </text><text class="cls-1" transform="matrix(0.99, 0.17, -0.17, 0.99, 97.49, 18.47)">L</text><text class="cls-1" transform="translate(107.46 19.93) rotate(19.01)">o</text><text class="cls-1" transform="translate(120.12 24.19) rotate(29.54)">r</text><text class="cls-1" transform="matrix(0.78, 0.63, -0.63, 0.78, 131.68, 30.77)">e</text><text class="cls-1" transform="matrix(0.67, 0.74, -0.74, 0.67, 140.06, 37.35)">n</text><text class="cls-1" transform="translate(148.4 46.49) rotate(57.64)">z</text><text class="cls-1" transform="translate(155.01 56.62) rotate(67.73)">o</text><text class="cls-1" transform="translate(159.97 69.44) rotate(74.59)"> </text></g></g></svg>